<svg id="レイヤー_1" data-name="レイヤー 1" xmlns="http://www.w3.org/2000/svg" viewBox="0 0 1116 192"><defs><style>.cls-1{fill:#000;}</style></defs><path class="cls-1" d="M174.7,162H97c-36.22,0-66.44-28.76-67-65A66.07,66.07,0,0,1,96,30h38.35a1,1,0,0,0,.83-1.56L116.59.88A2,2,0,0,0,114.94,0H97.21C44.27,0,.39,42.34,0,95.27A96,96,0,0,0,96,192h98.12a1,1,0,0,0,.83-1.56l-18.59-27.56A2,2,0,0,0,174.7,162Z"/><path class="cls-1" d="M254.79,0H157.88a1,1,0,0,0-.83,1.56l18.59,27.56a2,2,0,0,0,1.66.88H255c36.22,0,66.44,28.76,67,65a66.07,66.07,0,0,1-66,67H217.65a1,1,0,0,0-.83,1.56l18.59,27.56a2,2,0,0,0,1.65.88H256a96,96,0,0,0,96-96.73C351.61,42.34,307.73,0,254.79,0Z"/><path class="cls-1" d="M496,32a64,64,0,1,0,64,64A64,64,0,0,0,496,32Zm0,106.67A42.67,42.67,0,1,1,538.67,96,42.72,42.72,0,0,1,496,138.67Z"/><path class="cls-1" d="M681.08,113.91a1,1,0,0,1,.43-1.47A40,40,0,0,0,705,75.36C704.65,53.4,686.24,36,664.28,36H606a1,1,0,0,0-1,1V155a1,1,0,0,0,1,1h18a1,1,0,0,0,1-1V57a1,1,0,0,1,1-1h38.52c10.84,0,20.08,8.43,20.47,19.27A20,20,0,0,1,665,96H646.88a1,1,0,0,0-.83,1.56l38.83,57.56a2,2,0,0,0,1.65.88h21.06a1,1,0,0,0,.83-1.56Z"/><path class="cls-1" d="M809.21,36H751a1,1,0,0,0-1,1V155a1,1,0,0,0,1,1h18a1,1,0,0,0,1-1V57a1,1,0,0,1,1-1h38.52c10.84,0,20.08,8.43,20.47,19.27A20,20,0,0,1,810,96H786.88a1,1,0,0,0-.83,1.56l11.85,17.56a2,2,0,0,0,1.65.88H810a40,40,0,0,0,40-39.22C850.42,54.36,831.64,36,809.21,36Z"/><path class="cls-1" d="M1052,56h63a1,1,0,0,0,1-1V37a1,1,0,0,0-1-1h-83a1,1,0,0,0-1,1V155a1,1,0,0,0,1,1h83a1,1,0,0,0,1-1V137a1,1,0,0,0-1-1h-63a1,1,0,0,1-1-1V107a1,1,0,0,1,1-1h52.12a1,1,0,0,0,.83-1.56L1093.1,86.88a2,2,0,0,0-1.65-.88H1052a1,1,0,0,1-1-1V57A1,1,0,0,1,1052,56Z"/><rect class="cls-1" x="885" y="36" width="20" height="120" rx="1"/><path class="cls-1" d="M984,36H966a1,1,0,0,0-1,1V85a1,1,0,0,1-1,1H916.88a1,1,0,0,0-.83,1.56l11.85,17.56a2,2,0,0,0,1.65.88H964a1,1,0,0,1,1,1v48a1,1,0,0,0,1,1h18a1,1,0,0,0,1-1V37A1,1,0,0,0,984,36Z"/></svg>